HIERARCHY
ROOT Hips
{
    OFFSET 0.0 0.0 0.0
    CHANNELS 6 Xposition Yposition Zposition Zrotation Xrotation Yrotation
    JOINT LHipJoint
    {
        OFFSET 0.1 0.0 0.0
        CHANNELS 3 Zrotation Xrotation Yrotation
        JOINT LeftHip
        {
            OFFSET 0.12237933278083801 0.0 0.0
            CHANNELS 3 Zrotation Xrotation Yrotation
            JOINT LeftKnee
            {
                OFFSET 0.0 0.0 -0.43049246072769165
                CHANNELS 3 Zrotation Xrotation Yrotation
                JOINT LeftAnkle
                {
                    OFFSET 0.0 0.0 -0.44070491194725037
                    CHANNELS 3 Zrotation Xrotation Yrotation
                    End Site
                    {
                        OFFSET 0.0 -0.1 0.0
                    }
                }
            }
        }
    }
    JOINT lowerback
    {
        OFFSET 0.0 0.0 0.1
        CHANNELS 3 Zrotation Xrotation Yrotation
        JOINT Chest
        {
            OFFSET 0.0 0.0 0.23130281269550323
            CHANNELS 3 Zrotation Xrotation Yrotation
            JOINT Chest2
            {
                OFFSET 0.0 0.0 0.2586175799369812
                CHANNELS 3 Zrotation Xrotation Yrotation
                JOINT LeftCollar
                {
                    OFFSET 0.1 0.0 0.0
                    CHANNELS 3 Zrotation Xrotation Yrotation
                    JOINT LeftShoulder
                    {
                        OFFSET 0.140056312084198 0.0 0.0
                        CHANNELS 3 Zrotation Xrotation Yrotation
                        JOINT LeftElbow
                        {
                            OFFSET 0.2676364779472351 0.0 0.0
                            CHANNELS 3 Zrotation Xrotation Yrotation
                            JOINT LeftWrist
                            {
                                OFFSET 0.22626103460788727 0.0 0.0
                                CHANNELS 3 Zrotation Xrotation Yrotation
                                End Site
                                {
                                    OFFSET 0.1 0.0 0.0
                                }
                            }
                        }
                    }
                }
                JOINT Neck
                {
                    OFFSET 0.0 0.0 0.1
                    CHANNELS 3 Zrotation Xrotation Yrotation
                    JOINT Head
                    {
                        OFFSET 0.0 0.0 0.11356215924024582
                        CHANNELS 3 Zrotation Xrotation Yrotation
                        End Site
                        {
                            OFFSET 0.0 0.0 0.11753275245428085
                        }
                    }
                }
                JOINT RightCollar
                {
                    OFFSET -0.1 0.0 0.0
                    CHANNELS 3 Zrotation Xrotation Yrotation
                    JOINT RightShoulder
                    {
                        OFFSET -0.140056312084198 0.0 0.0
                        CHANNELS 3 Zrotation Xrotation Yrotation
                        JOINT RightElbow
                        {
                            OFFSET -0.2676364779472351 0.0 0.0
                            CHANNELS 3 Zrotation Xrotation Yrotation
                            JOINT RightWrist
                            {
                                OFFSET -0.22626103460788727 0.0 0.0
                                CHANNELS 3 Zrotation Xrotation Yrotation
                                End Site
                                {
                                    OFFSET -0.1 0.0 0.0
                                }
                            }
                        }
                    }
                }
            }
        }
    }
    JOINT RHipJoint
    {
        OFFSET -0.1 0.0 0.0
        CHANNELS 3 Zrotation Xrotation Yrotation
        JOINT RightHip
        {
            OFFSET -0.12237933278083801 0.0 0.0
            CHANNELS 3 Zrotation Xrotation Yrotation
            JOINT RightKnee
            {
                OFFSET 0.0 0.0 -0.43049246072769165
                CHANNELS 3 Zrotation Xrotation Yrotation
                JOINT RightAnkle
                {
                    OFFSET 0.0 0.0 -0.44070491194725037
                    CHANNELS 3 Zrotation Xrotation Yrotation
                    End Site
                    {
                        OFFSET 0.0 -0.1 0.0
                    }
                }
            }
        }
    }
}
MOTION
Frames: 4
Frame Time: 0.03333333333333333
-1.2088148650946096e-06 0.8876847624778748 -4.451627319213003e-06 -92.97862760156983 -43.56755561231804 -95.81822910289543 6.3611093629270335e-15 7.951386703658792e-15 -4.413906298050159e-31 -0.0634458632094537 -2.1409636361337423 -4.226569379257337 -0.746054818317002 16.5615682465537 -0.9355603275502579 -3.1805546814635168e-15 0.0 0.0 6.3611093629270335e-15 7.951386703658792e-15 -4.413906298050159e-31 0.1319784987447964 4.346979980409964 7.230493379072638 -2.840828395906544 4.9904937622375546e-06 4.395696867648599e-06 -3.1805546814635168e-15 1.5902773407317584e-15 4.4139062980501586e-32 3.6802944791424363 9.737244634897621 62.717656867783134 -29.530288182274695 -3.887012989645311e-06 -2.5719566896362742e-06 6.3611093629270335e-15 3.1805546814635168e-15 -1.7655625192200634e-31 -3.1805546814635168e-15 1.5902773407317584e-15 4.4139062980501586e-32 -4.397690143211864 3.198468556790808 -10.408170072407138 -3.1805546814635168e-15 1.5902773407317584e-15 4.4139062980501586e-32 -22.86384915732625 -37.866862408040674 -32.858989730882996 68.15543432580165 1.4395443061228875e-06 -3.505783131010955e-06 -2.3854160110976376e-15 6.620859447075238e-32 -3.1805546814635168e-15 6.3611093629270335e-15 7.951386703658792e-15 -4.413906298050159e-31 -0.09783873942228169 -3.167111850363853 -1.0949888660666451 0.188402275764153 15.916096123738946 -3.069339188515355 3.1805546814635168e-15 0.0 0.0
-1.5845535017433576e-06 0.88768470287323 -4.761830496136099e-06 -92.70959577302105 -43.362037785837984 -95.66883416356384 -3.1805546814635168e-15 -1.2722218725854067e-14 -3.531125038440127e-31 -0.06857441796435887 -2.438373580828168 -3.5677062090274974 -0.5950985309282322 17.064912194098454 -1.67234388220369 -3.1805546814635168e-15 -1.3241718894150476e-31 4.770832022195275e-15 -3.1805546814635168e-15 -1.2722218725854067e-14 -3.531125038440127e-31 0.12459061649360612 4.328320225582482 6.603116417331738 -3.1529681411692363 -3.317602557696696e-06 -1.153009033529397e-06 -1.3241718894150476e-31 -4.770832022195274e-15 -3.1805546814635164e-15 -0.8977309161410575 12.089786118618248 64.37999121299131 -30.69484047365218 3.2601501214821747e-06 2.4196793075814207e-06 -6.361109362927033e-15 1.7655625192200634e-31 -3.1805546814635164e-15 -1.3241718894150476e-31 -4.770832022195274e-15 -3.1805546814635164e-15 -2.5844862122042795 2.3099130834021366 -10.530247673309574 -1.3241718894150476e-31 -4.770832022195274e-15 -3.1805546814635164e-15 -22.339783193043566 -38.504533128373055 -33.26834613341913 69.81678820315754 -2.887543446410964e-06 3.1722403404155206e-06 -1.5902773407317584e-15 -3.9756933518293955e-16 -3.1805546814635168e-15 -3.1805546814635168e-15 -1.2722218725854067e-14 -3.531125038440127e-31 -0.10036566993517124 -3.4258519847579216 -0.5942833501194573 0.2980243268412131 15.539155999708727 -3.462267575986592 0.0 0.0 3.1805546814635168e-15
-2.421779754513409e-06 0.8876842856407166 -5.361882358556613e-06 -92.52674191684727 -43.1871714916315 -95.34643842511544 -3.1805546814635164e-15 1.5902773407317582e-15 4.4139062980501586e-32 -0.09569130081196461 -3.0055591615000825 -3.138280842528301 -0.4150290023381615 17.751909304196246 -2.245235852576172 3.1805546814635164e-15 -6.361109362927033e-15 1.7655625192200634e-31 -3.1805546814635164e-15 1.5902773407317582e-15 4.4139062980501586e-32 0.14686940592307354 4.520857065229961 5.705226025331374 -3.63522855758991 -3.3489735124334256e-06 -1.3797028514580339e-06 -6.361109362927035e-15 0.0 0.0 -6.122848200555949 13.025593360710783 66.51141470017023 -31.92640232598977 5.185928887479376e-06 3.343382810133514e-06 6.3611093629270335e-15 3.1805546814635168e-15 -1.7655625192200634e-31 -6.361109362927035e-15 0.0 0.0 -1.2014617808609784 1.70040053845387 -10.835655510793144 -6.361109362927035e-15 0.0 0.0 -22.472624520224326 -39.04694056018109 -34.677101644365834 72.02301834214207 2.369563423669103e-06 -1.648800020940757e-06 2.385416011097637e-15 -3.975693351829396e-16 -1.5902773407317582e-15 -3.1805546814635164e-15 1.5902773407317582e-15 4.4139062980501586e-32 -0.13423813538501175 -4.068158735654497 -0.40487554145394505 0.4221085099983603 15.978758177870063 -3.7233387514071725 -6.361109362927033e-15 -6.361109362927033e-15 -3.1805546814635168e-15
-3.002866833412554e-06 0.8876830339431763 -5.604302714345977e-06 -92.3528029118304 -43.14011744099008 -95.41256380577377 -3.1805546814635168e-15 1.5902773407317584e-15 -3.1805546814635168e-15 -0.10726579955701561 -3.1822042822553938 -2.8984921740554292 -0.2967771013999461 17.40871800103367 -1.946092720673976 0.0 0.0 3.1805546814635164e-15 -3.1805546814635168e-15 1.5902773407317584e-15 -3.1805546814635168e-15 0.16342577670612154 4.750488717536155 5.040257443538308 -3.792676151891302 3.3361039870876165e-06 -4.581088676198012e-07 6.3611093629270335e-15 4.770832022195275e-15 3.1805546814635164e-15 -9.793540812338254 13.627319577245652 67.31318539478906 -33.035770181615135 -1.4873252482634298e-06 -7.003687854860098e-07 -6.3611093629270335e-15 -1.987846675914698e-16 -1.1034765745125397e-32 6.3611093629270335e-15 4.770832022195275e-15 3.1805546814635164e-15 -0.3561084445849987 0.51921674454559 -9.970645183540057 6.3611093629270335e-15 4.770832022195275e-15 3.1805546814635164e-15 -23.68388067446338 -37.73993993598603 -36.31589911902664 73.77218761066398 1.463624036848571e-07 2.105775769316681e-07 7.951386703658794e-16 -5.517382872562698e-33 -7.951386703658794e-16 -3.1805546814635168e-15 1.5902773407317584e-15 -3.1805546814635168e-15 -0.15828729000605365 -4.53069047000301 -0.1054200483152403 0.5299153330721287 15.71038138877258 -3.8848156791365094 -6.3611093629270335e-15 6.3611093629270335e-15 3.531125038440127e-31
